<svg width="20" height="20" viewBox="0 0 20 20" fill="none" xmlns="http://www.w3.org/2000/svg">
<path d="M5.27444 19.9487C5.16931 19.9487 5.06418 19.909 4.98469 19.8282C4.82444 19.668 4.82444 19.4077 4.98469 19.2475L14.495 9.75001C14.6552 9.58976 14.9155 9.58976 15.0757 9.75001C15.236 9.91027 15.236 10.1705 15.0757 10.3308L5.56418 19.8282C5.48341 19.909 5.37828 19.9487 5.27444 19.9487Z" fill="white"/>
<path d="M14.7833 10.4513C14.6782 10.4513 14.573 10.4115 14.4936 10.3308L4.92561 0.751285C4.76536 0.591029 4.76536 0.330772 4.92561 0.170516C5.08587 0.0102594 5.34612 0.0102594 5.50638 0.170516L15.073 9.75C15.2333 9.91026 15.2333 10.1705 15.073 10.3308C14.9936 10.4115 14.8884 10.4513 14.7833 10.4513Z" fill="white"/>
</svg>
