<svg xmlns="http://www.w3.org/2000/svg" version="1.1" xmlns:xlink="http://www.w3.org/1999/xlink" width="512" height="512" x="0" y="0" viewBox="0 0 682.667 682.667" style="enable-background:new 0 0 512 512" xml:space="preserve" class=""><g><defs><clipPath id="a" clipPathUnits="userSpaceOnUse"><path d="M0 512h512V0H0Z" fill="#e95605" opacity="1" data-original="#000000"></path></clipPath></defs><g clip-path="url(#a)" transform="matrix(1.33333 0 0 -1.33333 0 682.667)"><path d="M0 0v80.333a48.227 48.227 0 0 1-14.115 34.086A48.226 48.226 0 0 1-48.2 128.533H-241a48.226 48.226 0 0 1-34.085-14.114A48.227 48.227 0 0 1-289.2 80.333v-385.6a48.227 48.227 0 0 1 14.115-34.086A48.226 48.226 0 0 1-241-353.467h192.8a48.226 48.226 0 0 1 34.085 14.114A48.227 48.227 0 0 1 0-305.267v16.067h-192.8a32.096 32.096 0 0 0-22.718 9.415 32.097 32.097 0 0 0-9.415 22.719v224.932a32.097 32.097 0 0 0 9.415 22.719A32.096 32.096 0 0 0-192.8 0z" style="stroke-width:30;stroke-linecap:round;stroke-linejoin:round;stroke-miterlimit:10;stroke-dasharray:none;stroke-opacity:1" transform="translate(352.4 368.467)" fill="none" stroke="#e95605" stroke-width="30" stroke-linecap="round" stroke-linejoin="round" stroke-miterlimit="10" stroke-dasharray="none" stroke-opacity="" data-original="#000000" opacity="1"></path><path d="M0 0h32.133" style="stroke-width:30;stroke-linecap:round;stroke-linejoin:round;stroke-miterlimit:10;stroke-dasharray:none;stroke-opacity:1" transform="translate(191.733 432.733)" fill="none" stroke="#e95605" stroke-width="30" stroke-linecap="round" stroke-linejoin="round" stroke-miterlimit="10" stroke-dasharray="none" stroke-opacity="" data-original="#000000" opacity="1"></path><path d="M0 0a32.1 32.1 0 0 1-9.415 22.719 32.096 32.096 0 0 1-22.718 9.415H-289.2a32.096 32.096 0 0 0-22.718 9.415 32.093 32.093 0 0 0-9.415 22.718v-224.933a32.1 32.1 0 0 1 9.415-22.719A32.096 32.096 0 0 1-289.2-192.8h257.067a32.096 32.096 0 0 1 22.718 9.415A32.1 32.1 0 0 1 0-160.666z" style="stroke-width:30;stroke-linecap:round;stroke-linejoin:round;stroke-miterlimit:10;stroke-dasharray:none;stroke-opacity:1" transform="translate(448.8 272.066)" fill="none" stroke="#e95605" stroke-width="30" stroke-linecap="round" stroke-linejoin="round" stroke-miterlimit="10" stroke-dasharray="none" stroke-opacity="" data-original="#000000" opacity="1"></path><path d="M0 0h-80.333c-17.746 0-32.133-14.387-32.133-32.133 0-17.746 14.387-32.134 32.133-32.134H0Z" style="stroke-width:30;stroke-linecap:round;stroke-linejoin:round;stroke-miterlimit:10;stroke-dasharray:none;stroke-opacity:1" transform="translate(448.8 223.866)" fill="none" stroke="#e95605" stroke-width="30" stroke-linecap="round" stroke-linejoin="round" stroke-miterlimit="10" stroke-dasharray="none" stroke-opacity="" data-original="#000000" opacity="1"></path><path d="M0 0a32.1 32.1 0 0 1-9.415 22.719 32.096 32.096 0 0 1-22.718 9.415H-289.2c-17.745 0-32.133-14.388-32.133-32.134 0-17.745 14.388-32.133 32.133-32.133h257.083C-14.379-32.133 0-46.513 0-64.25v-.017z" style="stroke-width:30;stroke-linecap:round;stroke-linejoin:round;stroke-miterlimit:10;stroke-dasharray:none;stroke-opacity:1" transform="translate(448.8 336.333)" fill="none" stroke="#e95605" stroke-width="30" stroke-linecap="round" stroke-linejoin="round" stroke-miterlimit="10" stroke-dasharray="none" stroke-opacity="" data-original="#000000" opacity="1"></path></g></g></svg>