<svg xmlns="http://www.w3.org/2000/svg" version="1.1" xmlns:xlink="http://www.w3.org/1999/xlink" width="512" height="512" x="0" y="0" viewBox="0 0 512 512" style="enable-background:new 0 0 512 512" xml:space="preserve" class=""><g><path d="M380.609 228.417V25c0-5.523-4.477-10-10-10H25c-5.523 0-10 4.477-10 10v461.998c0 5.523 4.477 10 10 10l345.473.002M85.482 228.855h115.78M85.482 168.851h115.78M85.482 108.847h223.699M85.482 288.451h115.78M85.482 338.454h115.78M85.482 398.458h115.78" style="stroke-width:30;stroke-linecap:round;stroke-linejoin:round;stroke-miterlimit:10;" fill="none" stroke="#e95605" stroke-width="30" stroke-linecap="round" stroke-linejoin="round" stroke-miterlimit="10" data-original="#000000" opacity="1" class=""></path><path d="m496.995 333.544-.529-69.699c-25.165.186-46.961-14.341-57.012-35.427l-120.147.887c-9.73 21.232-31.304 36.08-56.468 36.265l.529 69.699c.445 58.63 32.271 112.661 83.685 142.072l34.363 19.657 34.061-20.162c50.961-30.167 81.963-84.662 81.518-143.292z" style="stroke-width:30;stroke-linecap:round;stroke-linejoin:round;stroke-miterlimit:10;" fill="none" stroke="#e95605" stroke-width="30" stroke-linecap="round" stroke-linejoin="round" stroke-miterlimit="10" data-original="#000000" opacity="1" class=""></path><path d="m344.128 355.168 25.73 31.606 54.27-57.704" style="stroke-width:30;stroke-linecap:round;stroke-linejoin:round;stroke-miterlimit:10;" fill="none" stroke="#e95605" stroke-width="30" stroke-linecap="round" stroke-linejoin="round" stroke-miterlimit="10" data-original="#000000" opacity="1" class=""></path></g></svg>