<svg xmlns="http://www.w3.org/2000/svg" version="1.1" xmlns:xlink="http://www.w3.org/1999/xlink" width="512" height="512" x="0" y="0" viewBox="0 0 512 512" style="enable-background:new 0 0 512 512" xml:space="preserve"><g><path d="M135 362H15c-8.285 0-15 6.715-15 15v120c0 8.285 6.715 15 15 15h120c8.285 0 15-6.715 15-15V377c0-8.285-6.715-15-15-15zm-15 30v30H30v-30zm0 90H30v-30h90zM316 302H196c-8.285 0-15 6.715-15 15v180c0 8.285 6.715 15 15 15h120c8.285 0 15-6.715 15-15V317c0-8.285-6.715-15-15-15zm-105 90h90v30h-90zm90-60v30h-90v-30zm0 150h-90v-30h90zM497 182H377c-8.285 0-15 6.715-15 15v300c0 8.285 6.715 15 15 15h120c8.285 0 15-6.715 15-15V197c0-8.285-6.715-15-15-15zM392 362v-30h90v30zm90-60h-90v-30h90zm-90 90h90v30h-90zm90-180v30h-90v-30zm0 270h-90v-30h90zM76 271c3.84 0 7.68-1.465 10.605-4.395L196 157.215l49.395 49.39c5.87 5.872 15.39 5.856 21.242-.027L421 51.355V75c0 8.285 6.715 15 15 15s15-6.715 15-15V14.98C450.988 7.09 444.75.258 436.426.02c-.145 0-.281-.02-.426-.02h-60c-8.285 0-15 6.715-15 15s6.715 15 15 15h23.93L255.973 174.758l-49.368-49.363c-5.855-5.86-15.351-5.86-21.21 0l-120 120c-5.86 5.855-5.86 15.351 0 21.21A14.941 14.941 0 0 0 76 271zm0 0" fill="#e95605" opacity="1" data-original="#000000"></path></g></svg>