<svg width="85" height="19" viewBox="0 0 85 19" fill="none" xmlns="http://www.w3.org/2000/svg">
<path d="M7.90803 15.7886V9.09262H4.59603V15.7886H1.82403V9.09262H0.582033V6.78862H1.82403V6.06862C1.82403 4.77262 2.13003 3.80662 2.74203 3.17062C3.36603 2.53462 4.22403 2.21662 5.31603 2.21662C5.71203 2.21662 6.12603 2.25262 6.55803 2.32462V4.70062H5.78403C4.99203 4.70062 4.59603 5.15662 4.59603 6.06862V6.78862H10.698V15.7886H7.90803ZM9.31203 5.38462C8.86803 5.38462 8.49003 5.23462 8.17803 4.93462C7.87803 4.62262 7.72803 4.24462 7.72803 3.80062C7.72803 3.35662 7.87803 2.98462 8.17803 2.68462C8.49003 2.38462 8.86803 2.23462 9.31203 2.23462C9.74403 2.23462 10.11 2.38462 10.41 2.68462C10.722 2.98462 10.878 3.35662 10.878 3.80062C10.878 4.24462 10.722 4.62262 10.41 4.93462C10.11 5.23462 9.74403 5.38462 9.31203 5.38462ZM15.5731 15.7886H12.8011V6.78862H15.4111L15.5911 7.72462C16.1791 6.90862 17.0971 6.50062 18.3451 6.50062C19.4131 6.50062 20.2411 6.83062 20.8291 7.49062C21.4291 8.13862 21.7291 9.05062 21.7291 10.2266V15.7886H18.9571V10.8926C18.9571 10.3286 18.8131 9.87862 18.5251 9.54262C18.2371 9.19462 17.8531 9.02062 17.3731 9.02062C16.8211 9.02062 16.3831 9.18862 16.0591 9.52462C15.7351 9.84862 15.5731 10.2926 15.5731 10.8566V15.7886ZM27.3531 15.7886H24.5811V9.09262H22.8711V6.78862H24.5811V3.99862H27.3531V6.78862H29.0631V9.09262H27.3531V15.7886ZM34.397 16.0226C33.041 16.0226 31.925 15.5786 31.049 14.6906C30.173 13.7906 29.735 12.6506 29.735 11.2706C29.735 9.86662 30.161 8.72062 31.013 7.83262C31.877 6.94462 32.987 6.50062 34.343 6.50062C35.759 6.50062 36.875 6.93262 37.691 7.79662C38.519 8.66062 38.933 9.82462 38.933 11.2886V11.9906L32.399 12.0266C32.555 13.1906 33.239 13.7726 34.451 13.7726C34.979 13.7726 35.417 13.6826 35.765 13.5026C36.113 13.3226 36.335 13.0706 36.431 12.7466H38.969C38.801 13.7426 38.303 14.5406 37.475 15.1406C36.659 15.7286 35.633 16.0226 34.397 16.0226ZM34.361 8.75062C33.281 8.75062 32.639 9.27262 32.435 10.3166H36.179C36.179 9.83662 36.011 9.45862 35.675 9.18262C35.351 8.89462 34.913 8.75062 34.361 8.75062ZM40.0885 11.2526C40.0885 9.86062 40.5205 8.72062 41.3845 7.83262C42.2485 6.94462 43.3525 6.50062 44.6965 6.50062C46.0285 6.50062 47.1085 6.84262 47.9365 7.52662C48.7645 8.21062 49.2205 9.14062 49.3045 10.3166H46.5145C46.3225 9.42862 45.7525 8.98462 44.8045 8.98462C44.2165 8.98462 43.7485 9.18862 43.4005 9.59662C43.0525 10.0046 42.8785 10.5566 42.8785 11.2526C42.8785 11.9726 43.0405 12.5366 43.3645 12.9446C43.7005 13.3406 44.1685 13.5386 44.7685 13.5386C45.7525 13.5386 46.3345 13.0946 46.5145 12.2066H49.3045C49.2085 13.3466 48.7405 14.2706 47.9005 14.9786C47.0725 15.6746 46.0285 16.0226 44.7685 16.0226C43.3525 16.0226 42.2185 15.5906 41.3665 14.7266C40.5145 13.8506 40.0885 12.6926 40.0885 11.2526ZM53.5946 15.7886H50.8226V2.21662H53.6126V7.72462C54.2006 6.90862 55.1186 6.50062 56.3666 6.50062C57.4346 6.50062 58.2626 6.83062 58.8506 7.49062C59.4506 8.13862 59.7506 9.05062 59.7506 10.2266V15.7886H56.9786V10.8926C56.9786 10.3286 56.8346 9.87862 56.5466 9.54262C56.2586 9.19462 55.8746 9.02062 55.3946 9.02062C54.8426 9.02062 54.4046 9.18862 54.0806 9.52462C53.7566 9.84862 53.5946 10.2926 53.5946 10.8566V15.7886Z" fill="white"/>
<path d="M74.384 14.4886C77.2507 12.142 79.6574 8.78862 81.604 4.42862L83.784 6.42862C82.784 8.73529 81.444 10.8886 79.764 12.8886C78.084 14.8886 76.264 16.502 74.304 17.7286L71.664 15.3886C71.784 14.9486 71.9707 14.3086 72.224 13.4686C71.184 14.6686 70.1707 15.6753 69.184 16.4886C68.8374 16.782 68.4774 17.0753 68.104 17.3686L65.104 14.6686C65.7307 11.5486 66.8374 8.70195 68.424 6.12862C67.7707 6.43529 67.0374 6.81529 66.224 7.26862L65.244 4.96862C66.604 4.19529 67.604 3.67529 68.244 3.40862C68.8974 3.12862 69.464 2.90862 69.944 2.74862L72.184 4.98862C70.2774 7.96195 68.924 10.9553 68.124 13.9686C70.924 11.622 73.5707 8.16195 76.064 3.58862L78.144 5.50862L77.784 6.16862C76.8107 7.96862 76.124 9.37529 75.724 10.3886C75.1907 11.7886 74.744 13.1553 74.384 14.4886Z" fill="#E95605"/>
</svg>
