<svg xmlns="http://www.w3.org/2000/svg" version="1.1" xmlns:xlink="http://www.w3.org/1999/xlink" width="512" height="512" x="0" y="0" viewBox="0 0 512 512.001" style="enable-background:new 0 0 512 512" xml:space="preserve" class=""><g><path d="M504.535 15c0-8.285-6.715-15-15-15h-56.8c-8.286 0-15 6.719-15 15 0 8.285 6.714 15 15 15h20.585l-45.11 45.113a194.36 194.36 0 0 0-15.167-17.468C357.832 21.668 310.758 1.215 260.539.059 259.031.019 257.516 0 256.016 0h-.215c-1.446 0-2.89.02-4.293.055-50.27 1.16-97.344 21.61-132.555 57.59C83.687 93.684 64.266 141.3 64.266 191.73c0 31.88 7.875 63.04 22.863 90.856L4.395 365.32c-5.86 5.856-5.86 15.356 0 21.215 2.93 2.926 6.765 4.39 10.605 4.39s7.68-1.464 10.605-4.39l78.192-78.195a192.369 192.369 0 0 0 56.867 49.777v106.75c0 4.559 2.07 8.867 5.629 11.711l40.164 32.137a14.994 14.994 0 0 0 9.371 3.285h80.336c3.406 0 6.707-1.156 9.367-3.285l40.172-32.133a15 15 0 0 0 5.629-11.715V358.121a192.414 192.414 0 0 0 67.379-64.926c18.984-30.386 29.02-65.472 29.02-101.465 0-32.199-7.934-63.25-22.836-90.875l49.64-49.644.004 20.594c0 8.285 6.715 15 15 15s15-6.72 15-15zM94.265 191.73c0-87.144 70.848-159.68 157.97-161.683 1.187-.031 2.378-.047 3.566-.047h.195c1.258 0 2.508.016 3.805.05 51.832 1.192 97.91 27.376 126.722 66.75l-102.12 102.122-46.196-46.2c-5.86-5.855-15.355-5.855-21.215 0l-107.57 107.571c-9.817-21.04-15.156-44.336-15.156-68.563zM290.903 482H221.09l-30.426-24.344v-42.054H256l65.332-.004v42.062zM417.73 191.734c.004 61.063-33.8 116.282-88.226 144.106a14.998 14.998 0 0 0-8.172 13.355v36.403H190.664V349.19c0-5.632-3.156-10.789-8.172-13.355-23.203-11.86-42.64-28.715-57.324-48.863l102.43-102.43 46.199 46.195a15.003 15.003 0 0 0 10.605 4.395c3.98 0 7.797-1.578 10.606-4.395l107.347-107.343c9.852 20.832 15.375 44.015 15.375 68.34zm0 0" fill="#e95605" opacity="1" data-original="#000000"></path></g></svg>