<svg xmlns="http://www.w3.org/2000/svg" version="1.1" xmlns:xlink="http://www.w3.org/1999/xlink" width="512" height="512" x="0" y="0" viewBox="0 0 512 512" style="enable-background:new 0 0 512 512" xml:space="preserve" class=""><g><path d="M352.152 242.108c-23.92-39.376-59.145-77.068-82.426-106.777 16.599-21.324 10.842-52.648-13.026-66.47 6.451-9.248 14.338-13.167 15.345-13.64 9.195-3.712 16.513-22.505 7.045-38.904C273.192 6.1 262.628 0 250.832 0H157.67c-11.797 0-22.361 6.1-28.259 16.315-9.484 16.427-2.12 35.204 7.045 38.904 1.008.474 8.895 4.393 15.345 13.64-23.721 13.737-29.682 44.974-13.089 66.389C100.149 184.403 30 254.402 30 319.972c0 109.399 94.367 138.155 203.927 130.695C258.049 487.565 299.721 512 347 512c74.439 0 135-60.561 135-135 0-72.713-57.788-132.173-129.848-134.892zM234.25 122.727h-60c-8.002 0-14.95-6.543-14.95-14.95 0-7.206 5.125-13.236 11.921-14.64 1.507.145 3.028.089 4.768-.309h56.824c1.414.295 2.826.376 4.209.268 6.922 1.304 12.178 7.386 12.178 14.681 0 8.402-6.943 14.95-14.95 14.95zM157.669 30c98.448.459 94.171-1.238 95.539 1.498-7.613 4.862-19.69 14.661-27.529 31.329h-42.857c-7.839-16.667-19.915-26.467-27.529-31.329.488-.975 1.282-1.498 2.376-1.498zM60 319.972c0-53.919 68.241-122.229 104.049-168.427a44.907 44.907 0 0 0 10.201 1.182c60.403-.37 61.314.866 70.096-1.157 21.043 27.192 51.277 59.764 74.064 93.488-32.19 6.969-60.142 25.446-79.309 50.9-14.794-18.489-39.921-19.041-44.88-27.994-1.464-2.645.099-7.001 3.281-9.14 4.536-3.05 14.238-1.848 17.648 1.296 6.089 5.618 15.579 5.234 21.196-.855s5.233-15.579-.856-21.195c-4.646-4.286-10.538-7.345-16.909-9.134v-1.208c0-8.284-6.716-15-15-15s-15 6.716-15 15v2.212c-21.669 8.134-31.131 33.55-20.602 52.56 7.353 13.274 20.25 18.368 30.612 22.461 8.236 3.252 20.255 7.685 19.259 16.604-.475 4.26-3.698 8.487-8.019 10.521-6.17 2.902-18.577 1.107-26.027-3.767-6.934-4.539-16.23-2.593-20.765 4.34-4.536 6.932-2.592 16.229 4.34 20.765 5.811 3.802 13.239 6.868 21.201 8.578v1.875c0 12.106 13.581 19.111 23.429 12.407-.083 15.501 2.45 30.636 7.481 45.063C133.188 423.988 60 406.448 60 319.972zM347 482c-57.897 0-105-47.103-105-105s47.103-105 105-105 105 47.103 105 105-47.103 105-105 105z" fill="#e95605" opacity="1" data-original="#000000"></path><path d="m367.906 334.366-63.64 63.64c-5.858 5.857-5.858 15.355 0 21.213s15.355 5.858 21.213 0l63.64-63.64c5.858-5.857 5.858-15.355 0-21.213-5.858-5.857-15.356-5.857-21.213 0zM324.701 354.731c5.838-5.838 5.838-15.304 0-21.143-5.838-5.838-15.304-5.838-21.142 0s-5.838 15.304 0 21.143c5.838 5.838 15.304 5.838 21.142 0zM367.269 397.299c-5.838 5.838-5.838 15.304 0 21.142s15.304 5.838 21.142 0 5.838-15.304 0-21.142c-5.838-5.839-15.303-5.839-21.142 0z" fill="#e95605" opacity="1" data-original="#000000"></path></g></svg>