<svg xmlns="http://www.w3.org/2000/svg" version="1.1" xmlns:xlink="http://www.w3.org/1999/xlink" width="512" height="512" x="0" y="0" viewBox="0 0 682.667 682.667" style="enable-background:new 0 0 512 512" xml:space="preserve" class=""><g><defs><clipPath id="a" clipPathUnits="userSpaceOnUse"><path d="M0 512h512V0H0Z" fill="#e95605" opacity="1" data-original="#000000"></path></clipPath></defs><path d="M140 340h120v60H140Z" style="stroke-width:30;stroke-linecap:round;stroke-linejoin:round;stroke-miterlimit:10;stroke-dasharray:none;stroke-opacity:1" transform="matrix(1.33333 0 0 -1.33333 0 682.667)" fill="none" stroke="#e95605" stroke-width="30" stroke-linecap="round" stroke-linejoin="round" stroke-miterlimit="10" stroke-dasharray="none" stroke-opacity="" data-original="#000000" opacity="1" class=""></path><g clip-path="url(#a)" transform="matrix(1.33333 0 0 -1.33333 0 682.667)"><path d="M0 0h120c19.474 25.964 30 54.544 30 87v10h-10c-31.476 0-80-29-80-29S11.476 97-20 97h-10V87c0-32.456 10.527-61.036 30-87Z" style="stroke-width:30;stroke-linecap:round;stroke-linejoin:round;stroke-miterlimit:10;stroke-dasharray:none;stroke-opacity:1" transform="translate(140 400)" fill="none" stroke="#e95605" stroke-width="30" stroke-linecap="round" stroke-linejoin="round" stroke-miterlimit="10" stroke-dasharray="none" stroke-opacity="" data-original="#000000" opacity="1" class=""></path><path d="m0 0-56.569-56.568-28.285 28.284" style="stroke-width:30;stroke-linecap:round;stroke-linejoin:round;stroke-miterlimit:10;stroke-dasharray:none;stroke-opacity:1" transform="translate(439.427 173.284)" fill="none" stroke="#e95605" stroke-width="30" stroke-linecap="round" stroke-linejoin="round" stroke-miterlimit="10" stroke-dasharray="none" stroke-opacity="" data-original="#000000" opacity="1" class=""></path><path d="M0 0c-2.207 2.532-15.853 14.622-40.289 7.261C-62.726.502-68.298-30.198-53.05-42.157c8.755-6.866 21.927-12.512 39.681-18.788 39.735-14.045 25.047-70.082-15.373-70.351-15.773-.105-23.147.896-37.003 9.96" style="stroke-width:25;stroke-linecap:round;stroke-linejoin:round;stroke-miterlimit:10;stroke-dasharray:none;stroke-opacity:1" transform="translate(227.854 237.751)" fill="none" stroke="#e95605" stroke-width="25" stroke-linecap="round" stroke-linejoin="round" stroke-miterlimit="10" stroke-dasharray="none" stroke-opacity="" data-original="#000000" opacity="1" class=""></path><path d="M0 0v-180" style="stroke-width:25;stroke-linecap:round;stroke-linejoin:round;stroke-miterlimit:10;stroke-dasharray:none;stroke-opacity:1" transform="translate(199.112 266)" fill="none" stroke="#e95605" stroke-width="25" stroke-linecap="round" stroke-linejoin="round" stroke-miterlimit="10" stroke-dasharray="none" stroke-opacity="" data-original="#000000" opacity="1" class=""></path><path d="m0 0-2.111 4.223h-80L-84.223 0a64.723 64.723 0 0 0-57.888-35.777v-85.597c0-61.967 40.646-116.597 100-134.403 59.353 17.806 100 72.436 100 134.403v85.597A64.723 64.723 0 0 0 0 0Z" style="stroke-width:30;stroke-linecap:round;stroke-linejoin:round;stroke-miterlimit:10;stroke-dasharray:none;stroke-opacity:1" transform="translate(439.111 270.777)" fill="none" stroke="#e95605" stroke-width="30" stroke-linecap="round" stroke-linejoin="round" stroke-miterlimit="10" stroke-dasharray="none" stroke-opacity="" data-original="#000000" opacity="1" class=""></path><path d="M0 0c-23.674 34.832-52.441 65.621-77.279 90.927h-120c-53.408-54.415-125-134.168-125-225l.001-1.043c.122-54.955 45.854-98.957 100.81-98.957H-53.09c25.091 0 48.257 9.177 66.039 24.377" style="stroke-width:30;stroke-linecap:round;stroke-linejoin:round;stroke-miterlimit:10;stroke-dasharray:none;stroke-opacity:1" transform="translate(337.28 249.073)" fill="none" stroke="#e95605" stroke-width="30" stroke-linecap="round" stroke-linejoin="round" stroke-miterlimit="10" stroke-dasharray="none" stroke-opacity="" data-original="#000000" opacity="1" class=""></path></g></g></svg>