<svg xmlns="http://www.w3.org/2000/svg" version="1.1" xmlns:xlink="http://www.w3.org/1999/xlink" width="512" height="512" x="0" y="0" viewBox="0 0 512 512" style="enable-background:new 0 0 512 512" xml:space="preserve" class=""><g><path d="M272 106c0-24.855-21.098-45-46-45-24.813 0-45 20.188-45 45s20.188 45 45 45c24.863 0 46-20.098 46-45zm-46 15c-8.27 0-15-6.73-15-15s6.73-15 15-15c8.523 0 16 7.008 16 15s-7.477 15-16 15zM302 196c0-24.813-20.188-45-45-45h-61c-24.813 0-45 20.188-45 45v61c0 8.285 6.715 15 15 15h121c8.285 0 15-6.715 15-15zm-30 46h-91v-46c0-8.27 6.73-15 15-15h61c8.27 0 15 6.73 15 15zM331.973 317c0 8.285-6.72 15-15 15-8.286 0-15-6.715-15-15s6.714-15 15-15c8.28 0 15 6.715 15 15zM331.973 377c0 8.285-6.72 15-15 15-8.286 0-15-6.715-15-15s6.714-15 15-15c8.28 0 15 6.715 15 15zm0 0" fill="#e95605" opacity="1" data-original="#000000" class=""></path><path d="M497 151h-45V45c0-24.813-20.188-45-45-45H105C80.187 0 60 20.188 60 45v377H15c-8.285 0-15 6.715-15 15v15c0 33.086 26.914 60 60 60h272c33.086 0 60-26.914 60-60v-90h75c24.813 0 45-20.188 45-45V166c0-8.285-6.715-15-15-15zM30 452h242a59.621 59.621 0 0 0 8.07 30H60c-16.543 0-30-13.457-30-30zm302 30c-16.543 0-30-13.457-30-30v-15c0-8.285-6.715-15-15-15H90V45c0-8.27 6.73-15.012 15-15.012h259.578a44.814 44.814 0 0 0-2.578 15V452c0 16.543-13.457 30-30 30zm60-437c0-8.27 6.73-15 15-15s15 6.73 15 15v272c0 5.258.914 10.305 2.578 15H392zm90 272c0 8.27-6.73 15-15 15s-15-6.73-15-15V181h30zm0 0" fill="#e95605" opacity="1" data-original="#000000" class=""></path><path d="M257 302H135c-8.285 0-15 6.715-15 15s6.715 15 15 15h122c8.285 0 15-6.715 15-15s-6.715-15-15-15zM257 362H135c-8.285 0-15 6.715-15 15s6.715 15 15 15h122c8.285 0 15-6.715 15-15s-6.715-15-15-15zm0 0" fill="#e95605" opacity="1" data-original="#000000" class=""></path></g></svg>