<svg xmlns="http://www.w3.org/2000/svg" version="1.1" xmlns:xlink="http://www.w3.org/1999/xlink" width="512" height="512" x="0" y="0" viewBox="0 0 512 512" style="enable-background:new 0 0 512 512" xml:space="preserve"><g><path d="M476.019 344.398c-11.744-23.49-40.608-32.574-63.714-19.903l-80.834 44.329C328.024 347.41 309.42 331 287.05 331h-166v-15c0-8.284-6.716-15-15-15h-60c-8.284 0-15 6.716-15 15v181c0 8.284 6.716 15 15 15h60c8.284 0 15-6.716 15-15v-16h195.708c2.537 0 5.033-.644 7.253-1.87l132.973-73.46a46.213 46.213 0 0 0 19.035-61.272zM91.05 482h-30V331h30zm351.427-102.59L312.89 451H121.05v-90h166c8.271 0 15 6.729 15 15s-6.729 15-15 15h-90c-8.284 0-15 6.716-15 15s6.716 15 15 15h90a44.719 44.719 0 0 0 19.727-4.565c1.431-.568-6.856 3.905 119.953-65.635 8.113-4.451 18.303-1.293 22.457 7.015a16.287 16.287 0 0 1-6.71 21.595zM203.257 232.975V266c0 19.299 15.701 35 35 35h35c19.299 0 35-15.701 35-35v-33.025c24.2-16.023 38.771-42.094 38.771-70.694 0-47.639-40.944-86.396-91.271-86.396s-91.271 38.757-91.271 86.396c0 28.6 14.571 54.671 38.771 70.694zm75 33.025c0 2.757-2.243 5-5 5h-35c-2.757 0-5-2.243-5-5v-25h45zm-22.5-160.115c33.785 0 61.271 25.299 61.271 56.396 0 20.226-11.579 38.616-30.431 48.72h-15.84v-28.787l10.606-10.606c5.858-5.858 5.858-15.355 0-21.213-5.857-5.858-15.355-5.858-21.213 0l-4.394 4.393-4.394-4.393c-5.857-5.858-15.355-5.858-21.213 0s-5.858 15.355 0 21.213l10.606 10.606V211h-15.84c-18.851-10.104-30.431-28.494-30.431-48.72.002-31.096 27.488-56.395 61.273-56.395zM255.757 46c8.284 0 15-6.716 15-15V15c0-8.284-6.716-15-15-15s-15 6.716-15 15v16c0 8.284 6.716 15 15 15zM103.757 181h16c8.284 0 15-6.716 15-15s-6.716-15-15-15h-16c-8.284 0-15 6.716-15 15s6.716 15 15 15zM391.757 181h16c8.284 0 15-6.716 15-15s-6.716-15-15-15h-16c-8.284 0-15 6.716-15 15s6.716 15 15 15zM362.823 80.147l11.313-11.313c5.858-5.858 5.858-15.355 0-21.213-5.857-5.858-15.355-5.858-21.213 0L341.61 58.934c-5.858 5.858-5.858 15.355 0 21.213 5.857 5.858 15.356 5.859 21.213 0zM148.692 80.147c5.857 5.858 15.355 5.859 21.213 0 5.858-5.858 5.858-15.355 0-21.213l-11.313-11.313c-5.857-5.858-15.355-5.858-21.213 0s-5.858 15.355 0 21.213z" fill="#e95605" opacity="1" data-original="#000000"></path></g></svg>