<svg xmlns="http://www.w3.org/2000/svg" version="1.1" xmlns:xlink="http://www.w3.org/1999/xlink" width="512" height="512" x="0" y="0" viewBox="0 0 512 512" style="enable-background:new 0 0 512 512" xml:space="preserve"><g><path d="M331 497H31V15h270l90 90v116.206" style="stroke-width:30;stroke-linecap:round;stroke-linejoin:round;stroke-miterlimit:10;" fill="none" stroke="#e95605" stroke-width="30" stroke-linecap="round" stroke-linejoin="round" stroke-miterlimit="10" data-original="#000000" opacity="1"></path><path d="M391 105h-90V15M121 287h120M121 347h60M121 407h60M451 497H331c-16.569 0-30-13.431-30-30V257c0-16.569 13.431-30 30-30h120c16.569 0 30 13.431 30 30v210c0 16.569-13.431 30-30 30zM301 317h180M138.574 209.426l84.852-84.852M421 377h0M361 377h0M138.574 124.574h0M223.426 209.426h0M421 437h0M361 437h0" style="stroke-width:30;stroke-linecap:round;stroke-linejoin:round;stroke-miterlimit:10;" fill="none" stroke="#e95605" stroke-width="30" stroke-linecap="round" stroke-linejoin="round" stroke-miterlimit="10" data-original="#000000" opacity="1"></path></g></svg>