<svg xmlns="http://www.w3.org/2000/svg" version="1.1" xmlns:xlink="http://www.w3.org/1999/xlink" width="512" height="512" x="0" y="0" viewBox="0 0 682.667 682.667" style="enable-background:new 0 0 512 512" xml:space="preserve" class=""><g><defs><clipPath id="a" clipPathUnits="userSpaceOnUse"><path d="M0 512h512V0H0Z" fill="#e95605" opacity="1" data-original="#000000"></path></clipPath></defs><g clip-path="url(#a)" transform="matrix(1.33333 0 0 -1.33333 0 682.667)"><path d="M0 0c-4.73 17.445-11.58 33.98-20.381 49.308l16.608 37.809-56.569 56.569-37.809-16.608c-15.328 8.801-31.863 15.651-49.308 20.381l-15.012 38.529h-80l-15.011-38.529c-17.446-4.73-33.981-11.58-49.308-20.381l-37.81 16.608-56.568-56.569 16.607-37.809c-8.8-15.328-15.65-31.863-20.38-49.308l-38.53-15.012v-80l38.53-15.011c4.73-17.446 11.58-33.98 20.38-49.308l-16.607-37.809 56.568-56.568 37.81 16.607c15.327-8.801 31.862-15.65 49.308-20.381l15.011-38.53h80l15.012 38.53c17.445 4.731 33.98 11.58 49.308 20.381l37.809-16.607 56.569 56.568-16.608 37.809C-11.58-144.003-4.73-127.469 0-110.023l38.529 15.011v80z" style="stroke-width:30;stroke-linecap:round;stroke-linejoin:round;stroke-miterlimit:10;stroke-dasharray:none;stroke-opacity:1" transform="translate(458.47 311.012)" fill="none" stroke="#e95605" stroke-width="30" stroke-linecap="round" stroke-linejoin="round" stroke-miterlimit="10" stroke-dasharray="none" stroke-opacity="" data-original="#000000" opacity="1"></path><path d="M0 0c0 82.843 67.157 150 150 150S300 82.843 300 0s-67.157-150-150-150S0-82.843 0 0Z" style="stroke-width:30;stroke-linecap:round;stroke-linejoin:round;stroke-miterlimit:10;stroke-dasharray:none;stroke-opacity:1" transform="translate(106 256)" fill="none" stroke="#e95605" stroke-width="30" stroke-linecap="round" stroke-linejoin="round" stroke-miterlimit="10" stroke-dasharray="none" stroke-opacity="" data-original="#000000" opacity="1"></path><path d="M0 0c0 27.614 22.386 50 50 50s50-22.386 50-50-22.386-50-50-50S0-27.614 0 0Z" style="stroke-width:30;stroke-linecap:round;stroke-linejoin:round;stroke-miterlimit:10;stroke-dasharray:none;stroke-opacity:1" transform="translate(206 291)" fill="none" stroke="#e95605" stroke-width="30" stroke-linecap="round" stroke-linejoin="round" stroke-miterlimit="10" stroke-dasharray="none" stroke-opacity="" data-original="#000000" opacity="1"></path><path d="M0 0v19.165c0 48.325-39.175 87.5-87.5 87.5S-175 67.49-175 19.165V0" style="stroke-width:30;stroke-linecap:round;stroke-linejoin:round;stroke-miterlimit:10;stroke-dasharray:none;stroke-opacity:1" transform="translate(343.5 134.335)" fill="none" stroke="#e95605" stroke-width="30" stroke-linecap="round" stroke-linejoin="round" stroke-miterlimit="10" stroke-dasharray="none" stroke-opacity="" data-original="#000000" opacity="1"></path></g></g></svg>